<svg version="1.1" id="Layer_1" xmlns="http://www.w3.org/2000/svg" xmlns:xlink="http://www.w3.org/1999/xlink" x="0px" y="0px"
	 width="100%" viewBox="0 0 301 301" enable-background="new 0 0 301 301" xml:space="preserve">
<path fill="none" opacity="1.000000" stroke="none" 
	d="
M167.000000,302.000000 
	C111.333344,302.000000 56.166687,302.000000 1.000022,302.000000 
	C1.000015,201.666687 1.000015,101.333389 1.000007,1.000063 
	C101.333290,1.000042 201.666580,1.000042 301.999908,1.000021 
	C301.999939,101.333275 301.999939,201.666550 301.999969,301.999908 
	C257.166656,302.000000 212.333328,302.000000 167.000000,302.000000 
M187.350723,282.992554 
	C191.520142,281.650543 195.719528,280.394440 199.853790,278.951691 
	C217.971542,272.629059 234.245010,263.006317 248.290405,250.042068 
	C263.979889,235.560287 276.246063,218.458359 284.728638,198.721741 
	C294.504456,175.975983 299.237701,152.519760 297.179901,127.596550 
	C296.038239,113.769417 293.209503,100.531616 288.270386,87.687103 
	C280.584412,67.699127 268.911469,50.429787 251.749390,37.428158 
	C228.882004,20.104282 202.372391,12.754945 174.169739,11.088043 
	C157.508896,10.103315 141.002792,12.116447 124.769363,16.019642 
	C105.662323,20.613771 87.538757,27.617802 70.583832,37.703049 
	C53.687859,47.753235 39.216736,60.577026 26.962490,75.773491 
	C21.062670,83.089844 15.559505,91.018600 11.478453,99.445709 
	C3.915767,115.062172 2.592597,131.852280 3.800338,149.163406 
	C4.857778,164.320221 7.866528,178.890533 13.104356,193.009155 
	C22.566322,218.513962 37.033482,240.575836 58.352436,257.924500 
	C82.928192,277.923462 111.548798,286.399384 142.605057,287.904083 
	C149.336761,288.230194 156.170044,287.694672 162.880356,286.906982 
	C170.798325,285.977539 178.633499,284.342926 187.350723,282.992554 
z"/>
<path fill="#00AEEF" opacity="1.000000" stroke="none" 
	d="
M186.927643,283.003296 
	C178.633499,284.342926 170.798325,285.977539 162.880356,286.906982 
	C156.170044,287.694672 149.336761,288.230194 142.605057,287.904083 
	C111.548798,286.399384 82.928192,277.923462 58.352436,257.924500 
	C37.033482,240.575836 22.566322,218.513962 13.104356,193.009155 
	C7.866528,178.890533 4.857778,164.320221 3.800338,149.163406 
	C2.592597,131.852280 3.915767,115.062172 11.478453,99.445709 
	C15.559505,91.018600 21.062670,83.089844 26.962490,75.773491 
	C39.216736,60.577026 53.687859,47.753235 70.583832,37.703049 
	C87.538757,27.617802 105.662323,20.613771 124.769363,16.019642 
	C141.002792,12.116447 157.508896,10.103315 174.169739,11.088043 
	C202.372391,12.754945 228.882004,20.104282 251.749390,37.428158 
	C268.911469,50.429787 280.584412,67.699127 288.270386,87.687103 
	C293.209503,100.531616 296.038239,113.769417 297.179901,127.596550 
	C299.237701,152.519760 294.504456,175.975983 284.728638,198.721741 
	C276.246063,218.458359 263.979889,235.560287 248.290405,250.042068 
	C234.245010,263.006317 217.971542,272.629059 199.853790,278.951691 
	C195.719528,280.394440 191.520142,281.650543 186.927643,283.003296 
M185.004745,156.008743 
	C187.157547,144.009293 194.434998,136.358627 205.861511,133.144257 
	C212.323685,131.326385 219.185623,130.783249 225.911011,130.084778 
	C234.135101,129.230667 241.019333,123.254974 241.969543,115.596786 
	C242.920227,107.935051 237.865860,99.743317 229.586609,98.196930 
	C223.424301,97.045944 216.612900,97.145828 210.471191,98.463142 
	C164.042908,108.421356 142.341217,162.503403 172.824966,200.651398 
	C186.001312,217.140533 202.795425,227.202438 224.560989,226.943375 
	C231.994553,226.854904 237.552902,223.082962 240.725311,216.356125 
	C243.508926,210.453705 242.015656,204.955933 237.932266,200.185791 
	C233.882828,195.455353 228.525589,194.036697 222.375534,193.918671 
	C199.813126,193.485672 182.320389,181.802002 185.004745,156.008743 
M127.006065,200.497986 
	C137.943527,185.944824 143.064026,169.963638 140.115570,151.558060 
	C135.132172,120.449455 106.938339,96.422829 75.555069,96.997101 
	C65.739738,97.176712 58.094810,104.044357 57.814137,112.934265 
	C57.516251,122.369293 64.527596,129.383392 74.661652,130.122772 
	C80.103973,130.519836 85.639023,130.852829 90.911720,132.127151 
	C103.524193,135.175385 112.480759,142.631027 114.657928,155.904663 
	C116.645683,168.023422 113.270149,178.751251 103.064453,186.388870 
	C95.181519,192.288239 85.863808,193.847290 76.275330,193.973038 
	C65.459457,194.114868 57.775005,200.970810 57.829517,210.624420 
	C57.882133,219.942245 65.649582,227.082245 76.123405,226.963303 
	C97.195282,226.724030 113.483620,216.969208 127.006065,200.497986 
M159.518066,68.785889 
	C154.776932,66.380249 149.878723,65.775497 144.638275,66.980591 
	C134.016083,69.423271 125.941200,81.659286 128.309006,91.992882 
	C131.200928,104.613869 142.962234,112.306175 154.647171,109.259155 
	C164.601440,106.663422 170.390900,100.143852 171.391800,90.079445 
	C172.304688,80.900337 168.257431,73.775177 159.518066,68.785889 
z"/>
<path fill="#FDFEFF" opacity="1.000000" stroke="none" 
	d="
M184.992645,156.459686 
	C182.320389,181.802002 199.813126,193.485672 222.375534,193.918671 
	C228.525589,194.036697 233.882828,195.455353 237.932266,200.185791 
	C242.015656,204.955933 243.508926,210.453705 240.725311,216.356125 
	C237.552902,223.082962 231.994553,226.854904 224.560989,226.943375 
	C202.795425,227.202438 186.001312,217.140533 172.824966,200.651398 
	C142.341217,162.503403 164.042908,108.421356 210.471191,98.463142 
	C216.612900,97.145828 223.424301,97.045944 229.586609,98.196930 
	C237.865860,99.743317 242.920227,107.935051 241.969543,115.596786 
	C241.019333,123.254974 234.135101,129.230667 225.911011,130.084778 
	C219.185623,130.783249 212.323685,131.326385 205.861511,133.144257 
	C194.434998,136.358627 187.157547,144.009293 184.992645,156.459686 
z"/>
<path fill="#FDFEFF" opacity="1.000000" stroke="none" 
	d="
M126.778801,200.773315 
	C113.483620,216.969208 97.195282,226.724030 76.123405,226.963303 
	C65.649582,227.082245 57.882133,219.942245 57.829517,210.624420 
	C57.775005,200.970810 65.459457,194.114868 76.275330,193.973038 
	C85.863808,193.847290 95.181519,192.288239 103.064453,186.388870 
	C113.270149,178.751251 116.645683,168.023422 114.657928,155.904663 
	C112.480759,142.631027 103.524193,135.175385 90.911720,132.127151 
	C85.639023,130.852829 80.103973,130.519836 74.661652,130.122772 
	C64.527596,129.383392 57.516251,122.369293 57.814137,112.934265 
	C58.094810,104.044357 65.739738,97.176712 75.555069,96.997101 
	C106.938339,96.422829 135.132172,120.449455 140.115570,151.558060 
	C143.064026,169.963638 137.943527,185.944824 126.778801,200.773315 
z"/>
<path fill="#FDFEFF" opacity="1.000000" stroke="none" 
	d="
M159.872375,68.918976 
	C168.257431,73.775177 172.304688,80.900337 171.391800,90.079445 
	C170.390900,100.143852 164.601440,106.663422 154.647171,109.259155 
	C142.962234,112.306175 131.200928,104.613869 128.309006,91.992882 
	C125.941200,81.659286 134.016083,69.423271 144.638275,66.980591 
	C149.878723,65.775497 154.776932,66.380249 159.872375,68.918976 
z"/>
</svg>